<svg width="1600" height="900" viewBox="0 0 1600 900" fill="none" xmlns="http://www.w3.org/2000/svg">
  <defs>
    <linearGradient id="bg" x1="0" y1="0" x2="1600" y2="900" gradientUnits="userSpaceOnUse">
      <stop stop-color="#EFF6FF"/>
      <stop offset="0.48" stop-color="#FFFFFF"/>
      <stop offset="1" stop-color="#DDEBFF"/>
    </linearGradient>
    <radialGradient id="sunGlow" cx="0" cy="0" r="1" gradientUnits="userSpaceOnUse" gradientTransform="translate(1245 168) rotate(90) scale(210)">
      <stop stop-color="#FEF08A" stop-opacity="0.96"/>
      <stop offset="0.48" stop-color="#FACC15" stop-opacity="0.44"/>
      <stop offset="1" stop-color="#FACC15" stop-opacity="0"/>
    </radialGradient>
    <linearGradient id="card" x1="620" y1="180" x2="1360" y2="760" gradientUnits="userSpaceOnUse">
      <stop stop-color="#FFFFFF"/>
      <stop offset="1" stop-color="#E7F0FF"/>
    </linearGradient>
    <linearGradient id="panel" x1="870" y1="330" x2="1280" y2="590" gradientUnits="userSpaceOnUse">
      <stop stop-color="#2563EB"/>
      <stop offset="1" stop-color="#0F1E4B"/>
    </linearGradient>
    <linearGradient id="line" x1="700" y1="622" x2="1350" y2="308" gradientUnits="userSpaceOnUse">
      <stop stop-color="#FACC15"/>
      <stop offset="0.52" stop-color="#22C55E"/>
      <stop offset="1" stop-color="#38BDF8"/>
    </linearGradient>
    <filter id="softShadow" x="520" y="130" width="930" height="710" filterUnits="userSpaceOnUse">
      <feOffset dy="30"/>
      <feGaussianBlur stdDeviation="34"/>
      <feColorMatrix type="matrix" values="0 0 0 0 0.03 0 0 0 0 0.08 0 0 0 0 0.22 0 0 0 0.18 0"/>
    </filter>
    <filter id="glow" x="650" y="250" width="760" height="460" filterUnits="userSpaceOnUse">
      <feGaussianBlur stdDeviation="10"/>
    </filter>
  </defs>

  <rect width="1600" height="900" fill="url(#bg)"/>
  <circle cx="1245" cy="168" r="220" fill="url(#sunGlow)"/>
  <circle cx="1245" cy="168" r="58" fill="#FACC15"/>
  <g stroke="#FACC15" stroke-width="8" stroke-linecap="round" opacity="0.86">
    <path d="M1245 66V30"/>
    <path d="M1245 306V270"/>
    <path d="M1143 168H1108"/>
    <path d="M1382 168H1346"/>
    <path d="M1173 96L1148 71"/>
    <path d="M1317 240L1342 265"/>
    <path d="M1317 96L1342 71"/>
    <path d="M1173 240L1148 265"/>
  </g>

  <path d="M0 748C250 706 490 710 760 760C1040 812 1320 792 1600 718V900H0V748Z" fill="#F1F6FF"/>
  <path d="M0 820C320 772 610 800 890 840C1150 876 1376 856 1600 800V900H0V820Z" fill="#E2EDFF"/>

  <g filter="url(#softShadow)">
    <rect x="640" y="190" width="700" height="540" rx="44" fill="url(#card)"/>
    <rect x="684" y="242" width="270" height="160" rx="26" fill="#172554"/>
    <rect x="724" y="282" width="58" height="74" rx="12" fill="#DBEAFE"/>
    <rect x="805" y="306" width="58" height="50" rx="12" fill="#93C5FD"/>
    <rect x="886" y="268" width="42" height="88" rx="12" fill="#FACC15"/>
    <path d="M714 374H924" stroke="#60A5FA" stroke-width="8" stroke-linecap="round"/>

    <rect x="1008" y="242" width="270" height="160" rx="26" fill="#EFF6FF"/>
    <path d="M1060 352C1060 304 1098 266 1146 266C1194 266 1232 304 1232 352" stroke="#172554" stroke-width="18" stroke-linecap="round"/>
    <path d="M1146 352L1192 306" stroke="#FACC15" stroke-width="14" stroke-linecap="round"/>
    <circle cx="1146" cy="352" r="16" fill="#172554"/>

    <path d="M735 586L906 472L1080 586V696H735V586Z" fill="#FFFFFF"/>
    <path d="M704 598L906 450L1112 598C1122 605 1121 620 1110 626L1084 641C1076 646 1066 646 1058 640L906 532L754 640C746 646 736 646 728 641L702 626C691 620 693 605 704 598Z" fill="#1D4ED8"/>
    <rect x="878" y="602" width="74" height="94" rx="12" fill="#E0F2FE"/>
    <rect x="774" y="604" width="74" height="56" rx="11" fill="#DBEAFE"/>
    <rect x="976" y="604" width="74" height="56" rx="11" fill="#DBEAFE"/>

    <path d="M948 470L1118 562L1088 612L918 520L948 470Z" fill="url(#panel)"/>
    <g stroke="#8CC8FF" stroke-width="3.2" opacity="0.65">
      <path d="M936 492L1106 584"/>
      <path d="M924 514L1094 606"/>
      <path d="M984 492L958 538"/>
      <path d="M1026 514L1000 560"/>
      <path d="M1068 537L1042 582"/>
    </g>

    <rect x="1132" y="470" width="150" height="210" rx="24" fill="#FFFFFF"/>
    <rect x="1160" y="504" width="94" height="10" rx="5" fill="#172554"/>
    <rect x="1160" y="536" width="72" height="10" rx="5" fill="#94A3B8"/>
    <rect x="1160" y="574" width="94" height="70" rx="14" fill="#EEF6FF"/>
    <path d="M1178 622L1198 596L1217 613L1240 584" stroke="#22C55E" stroke-width="8" stroke-linecap="round" stroke-linejoin="round"/>
  </g>

  <g filter="url(#glow)" opacity="0.34">
    <path d="M700 640C822 580 904 564 1018 580C1150 598 1234 514 1348 336" stroke="url(#line)" stroke-width="22" stroke-linecap="round"/>
  </g>
  <path d="M700 640C822 580 904 564 1018 580C1150 598 1234 514 1348 336" stroke="url(#line)" stroke-width="8" stroke-linecap="round"/>
  <g fill="#FACC15">
    <circle cx="700" cy="640" r="13"/>
    <circle cx="904" cy="564" r="10"/>
    <circle cx="1138" cy="574" r="10"/>
    <circle cx="1348" cy="336" r="13"/>
  </g>

  <g opacity="0.54" stroke="#A7C7F8" stroke-width="4" stroke-linecap="round">
    <path d="M146 330H408"/>
    <path d="M196 390H468"/>
    <path d="M118 450H360"/>
    <path d="M208 654H478"/>
    <path d="M148 714H368"/>
  </g>
  <g opacity="0.42" fill="#FACC15">
    <rect x="456" y="238" width="34" height="34" rx="8"/>
    <rect x="526" y="300" width="22" height="22" rx="6"/>
    <rect x="410" y="622" width="28" height="28" rx="7"/>
  </g>
</svg>
