<svg width="1600" height="900" viewBox="0 0 1600 900" fill="none" xmlns="http://www.w3.org/2000/svg">
  <defs>
    <linearGradient id="sky" x1="180" y1="0" x2="1420" y2="900" gradientUnits="userSpaceOnUse">
      <stop stop-color="#EAF6FF"/>
      <stop offset="0.45" stop-color="#F8FCFF"/>
      <stop offset="1" stop-color="#D9ECFF"/>
    </linearGradient>
    <radialGradient id="sunGlow" cx="0" cy="0" r="1" gradientUnits="userSpaceOnUse" gradientTransform="translate(1250 185) rotate(90) scale(230)">
      <stop stop-color="#FFF7B0"/>
      <stop offset="0.42" stop-color="#FACC15" stop-opacity="0.62"/>
      <stop offset="1" stop-color="#FACC15" stop-opacity="0"/>
    </radialGradient>
    <linearGradient id="panelBlue" x1="415" y1="322" x2="1250" y2="760" gradientUnits="userSpaceOnUse">
      <stop stop-color="#2563EB"/>
      <stop offset="0.52" stop-color="#133E9A"/>
      <stop offset="1" stop-color="#071B44"/>
    </linearGradient>
    <linearGradient id="panelBlueDark" x1="316" y1="545" x2="1160" y2="882" gradientUnits="userSpaceOnUse">
      <stop stop-color="#1D4ED8"/>
      <stop offset="1" stop-color="#071B44"/>
    </linearGradient>
    <linearGradient id="panelHighlight" x1="520" y1="320" x2="1120" y2="640" gradientUnits="userSpaceOnUse">
      <stop stop-color="#D8F3FF" stop-opacity="0.72"/>
      <stop offset="0.5" stop-color="#93C5FD" stop-opacity="0.18"/>
      <stop offset="1" stop-color="#FFFFFF" stop-opacity="0"/>
    </linearGradient>
    <linearGradient id="frame" x1="340" y1="320" x2="1260" y2="845" gradientUnits="userSpaceOnUse">
      <stop stop-color="#EAF2FF"/>
      <stop offset="1" stop-color="#93A8C9"/>
    </linearGradient>
    <filter id="softShadow" x="170" y="280" width="1220" height="660" filterUnits="userSpaceOnUse">
      <feOffset dy="32"/>
      <feGaussianBlur stdDeviation="34"/>
      <feColorMatrix type="matrix" values="0 0 0 0 0.03 0 0 0 0 0.08 0 0 0 0 0.22 0 0 0 0.24 0"/>
    </filter>
    <filter id="panelGlow" x="260" y="280" width="1110" height="620" filterUnits="userSpaceOnUse">
      <feGaussianBlur stdDeviation="16"/>
      <feColorMatrix type="matrix" values="0 0 0 0 0.25 0 0 0 0 0.55 0 0 0 0 1 0 0 0 0.18 0"/>
    </filter>
  </defs>

  <rect width="1600" height="900" fill="url(#sky)"/>

  <circle cx="1250" cy="185" r="238" fill="url(#sunGlow)"/>
  <circle cx="1250" cy="185" r="70" fill="#FACC15"/>
  <circle cx="1250" cy="185" r="52" fill="#FFE66D"/>
  <g stroke="#FACC15" stroke-width="10" stroke-linecap="round" opacity="0.86">
    <path d="M1250 62V16"/>
    <path d="M1250 354V306"/>
    <path d="M1127 185H1082"/>
    <path d="M1418 185H1372"/>
    <path d="M1163 98L1132 67"/>
    <path d="M1337 272L1369 304"/>
    <path d="M1337 98L1369 67"/>
    <path d="M1163 272L1132 304"/>
  </g>

  <path d="M0 720C270 610 524 664 790 720C1063 778 1310 735 1600 614V900H0V720Z" fill="#EAF3FF"/>
  <path d="M0 775C285 690 540 724 808 773C1082 823 1333 792 1600 700V900H0V775Z" fill="#DDEBFF"/>

  <g filter="url(#softShadow)">
    <path d="M286 474L1198 318L1350 708L426 874L286 474Z" fill="url(#frame)"/>
    <path d="M326 492L1175 346L1300 682L445 834L326 492Z" fill="url(#panelBlue)"/>
    <path d="M302 609L1136 466L1227 713L389 860L302 609Z" fill="url(#panelBlueDark)" opacity="0.96"/>
  </g>

  <g filter="url(#panelGlow)" opacity="0.72">
    <path d="M326 492L1175 346L1300 682L445 834L326 492Z" fill="url(#panelHighlight)"/>
  </g>

  <g stroke="#CFE6FF" stroke-width="6" stroke-linecap="round" opacity="0.9">
    <path d="M427 474L535 808"/>
    <path d="M580 448L682 782"/>
    <path d="M735 421L831 754"/>
    <path d="M892 394L981 727"/>
    <path d="M1048 367L1132 699"/>
    <path d="M358 584L1222 438"/>
    <path d="M394 692L1264 544"/>
    <path d="M430 798L1305 648"/>
  </g>

  <g stroke="#FFFFFF" stroke-width="3" stroke-linecap="round" opacity="0.34">
    <path d="M484 510L677 477"/>
    <path d="M792 459L1058 414"/>
    <path d="M542 626L764 588"/>
    <path d="M892 566L1160 521"/>
    <path d="M614 742L860 700"/>
  </g>

  <g opacity="0.72">
    <path d="M535 826L501 900H557L589 814L535 826Z" fill="#0F2D6F"/>
    <path d="M1056 734L1032 900H1098L1115 724L1056 734Z" fill="#0F2D6F"/>
    <path d="M394 864L384 900H435L445 855L394 864Z" fill="#102A61"/>
  </g>

  <g opacity="0.28" stroke="#BFD8FF" stroke-width="2">
    <path d="M92 280C238 198 404 170 560 205"/>
    <path d="M100 334C258 260 420 238 610 270"/>
    <path d="M106 388C284 324 457 310 660 342"/>
  </g>

  <circle cx="1194" cy="260" r="5" fill="#FFFFFF" opacity="0.86"/>
  <circle cx="1164" cy="288" r="3.5" fill="#FFFFFF" opacity="0.76"/>
  <circle cx="1308" cy="292" r="4" fill="#FFFFFF" opacity="0.72"/>
</svg>
