<svg width="1200" height="1600" viewBox="0 0 1200 1600" fill="none" xmlns="http://www.w3.org/2000/svg">
  <rect width="1200" height="1600" fill="#EFF6FF"/>
  <rect x="64" y="64" width="1072" height="1472" rx="56" fill="white"/>
  <rect x="64" y="64" width="1072" height="18" fill="#FACC15"/>
  <circle cx="1010" cy="210" r="120" fill="#FDE68A" fill-opacity="0.6"/>
  <circle cx="220" cy="1360" r="180" fill="#BFDBFE" fill-opacity="0.8"/>
  <rect x="128" y="156" width="944" height="560" rx="40" fill="url(#paint0_linear_1_2)"/>
  <rect x="128" y="762" width="452" height="162" rx="28" fill="#F8FAFC"/>
  <rect x="620" y="762" width="452" height="162" rx="28" fill="#EFF6FF"/>
  <rect x="128" y="958" width="944" height="118" rx="28" fill="#172554"/>
  <rect x="128" y="1112" width="944" height="288" rx="36" fill="#F8FAFC"/>
  <path d="M276 469C276 352.468 370.468 258 487 258H717C833.532 258 928 352.468 928 469V532H276V469Z" fill="#DBEAFE"/>
  <rect x="328" y="490" width="548" height="108" rx="28" fill="#1D4ED8"/>
  <rect x="364" y="526" width="242" height="20" rx="10" fill="#FFFFFF"/>
  <rect x="364" y="564" width="188" height="20" rx="10" fill="#BFDBFE"/>
  <rect x="654" y="526" width="170" height="58" rx="20" fill="#FACC15"/>
  <rect x="182" y="806" width="282" height="22" rx="11" fill="#172554"/>
  <rect x="182" y="846" width="338" height="18" rx="9" fill="#94A3B8"/>
  <rect x="674" y="806" width="282" height="22" rx="11" fill="#172554"/>
  <rect x="674" y="846" width="338" height="18" rx="9" fill="#94A3B8"/>
  <rect x="182" y="1000" width="352" height="22" rx="11" fill="#FFFFFF"/>
  <rect x="182" y="1042" width="286" height="18" rx="9" fill="#BFDBFE"/>
  <rect x="792" y="991" width="170" height="58" rx="20" fill="#FACC15"/>
  <rect x="182" y="1166" width="452" height="28" rx="14" fill="#172554"/>
  <rect x="182" y="1218" width="386" height="18" rx="9" fill="#94A3B8"/>
  <rect x="182" y="1262" width="432" height="18" rx="9" fill="#CBD5E1"/>
  <rect x="182" y="1306" width="298" height="18" rx="9" fill="#CBD5E1"/>
  <rect x="730" y="1166" width="160" height="160" rx="32" fill="#DBEAFE"/>
  <circle cx="810" cy="1246" r="40" fill="#1D4ED8"/>
  <path d="M810 1215L818.99 1238.01L844 1247L818.99 1255.99L810 1281L801.01 1255.99L776 1247L801.01 1238.01L810 1215Z" fill="#FACC15"/>
  <defs>
    <linearGradient id="paint0_linear_1_2" x1="600" y1="156" x2="600" y2="716" gradientUnits="userSpaceOnUse">
      <stop stop-color="#172554"/>
      <stop offset="1" stop-color="#1D4ED8"/>
    </linearGradient>
  </defs>
</svg>
