<?xml version="1.0" encoding="UTF-8"?>
<svg id="Capa_1" xmlns="http://www.w3.org/2000/svg" version="1.1" xmlns:xlink="http://www.w3.org/1999/xlink" viewBox="0 0 384 416">
  <!-- Generator: Adobe Illustrator 30.0.0, SVG Export Plug-In . SVG Version: 2.1.1 Build 123)  -->
  <defs>
    <style>
      .st0 {
        stroke-width: 3.6px;
      }

      .st0, .st1, .st2, .st3, .st4, .st5, .st6 {
        fill: none;
        stroke-linecap: round;
      }

      .st0, .st1, .st4 {
        stroke-opacity: .28;
      }

      .st0, .st2, .st6 {
        stroke: #60a5fa;
      }

      .st1 {
        stroke-width: 3px;
      }

      .st1, .st4 {
        stroke: #3b82f6;
      }

      .st2 {
        stroke-opacity: .24;
      }

      .st2, .st3 {
        stroke-width: 4px;
      }

      .st3 {
        stroke-opacity: .18;
      }

      .st3, .st7, .st8 {
        stroke: #93c5fd;
      }

      .st7 {
        fill: url(#Degradado_sin_nombre);
        stroke-opacity: .62;
      }

      .st7, .st8 {
        stroke-width: 3.2px;
      }

      .st8 {
        fill: url(#Degradado_sin_nombre_2);
        stroke-opacity: .6;
      }

      .st4 {
        stroke-width: 3.4px;
      }

      .st5 {
        stroke: #2563eb;
        stroke-linejoin: round;
        stroke-opacity: .38;
      }

      .st5, .st6 {
        stroke-width: 4.2px;
      }

      .st6 {
        stroke-opacity: .34;
      }

      .st9 {
        fill: #60a5fa;
        fill-opacity: .34;
      }
    </style>
    <linearGradient id="Degradado_sin_nombre" data-name="Degradado sin nombre" x1="215.11" y1="452.23" x2="339.11" y2="542.23" gradientTransform="translate(0 -426)" gradientUnits="userSpaceOnUse">
      <stop offset="0" stop-color="#f8fbff" stop-opacity=".7"/>
      <stop offset="1" stop-color="#60a5fa" stop-opacity=".2"/>
    </linearGradient>
    <linearGradient id="Degradado_sin_nombre_2" data-name="Degradado sin nombre 2" x1="210.27" y1="684.38" x2="336.27" y2="768.38" gradientTransform="translate(0 -426)" gradientUnits="userSpaceOnUse">
      <stop offset="0" stop-color="#eef5ff" stop-opacity=".56"/>
      <stop offset="1" stop-color="#93c5fd" stop-opacity=".22"/>
    </linearGradient>
  </defs>
  <rect class="st7" x="217.49" y="26.96" width="124" height="92" rx="18" ry="18"/>
  <path class="st1" d="M237.49,52.96h84"/>
  <circle class="st9" cx="259.49" cy="52.96" r="5"/>
  <path class="st5" d="M239.49,92.96l18-12,18,6,22-24,22,8"/>
  <path class="st6" d="M279.49,118.96v22M257.49,140.96h44"/>
  <path class="st2" d="M238.49,207.63c14-10,28-12,42,0,14,12,28,12,42,0s28-10,42,0"/>
  <path class="st8" d="M197,306.27c0-34,27-60,61-60s61,26,61,60h-122,0Z"/>
  <path class="st0" d="M257,260.27v46"/>
  <path class="st4" d="M229,278.27c8-8,18-12,29-12s21,4,29,12"/>
  <path class="st3" d="M184,354h148"/>
</svg>