<svg width="384" height="416" viewBox="0 0 384 416" fill="none" xmlns="http://www.w3.org/2000/svg">
  <defs>
    <linearGradient id="monitorFill" x1="220" y1="96" x2="344" y2="186" gradientUnits="userSpaceOnUse">
      <stop stop-color="#F8FBFF" stop-opacity="0.7"/>
      <stop offset="1" stop-color="#60A5FA" stop-opacity="0.2"/>
    </linearGradient>
    <linearGradient id="helmetFill" x1="212" y1="276" x2="338" y2="360" gradientUnits="userSpaceOnUse">
      <stop stop-color="#EEF5FF" stop-opacity="0.56"/>
      <stop offset="1" stop-color="#93C5FD" stop-opacity="0.22"/>
    </linearGradient>
  </defs>
  <path d="M284 46L298 60C302 64 308 64 312 60L320 52C313 45 311 35 316 28L308 20C303 15 295 15 290 20L282 28C277 33 277 41 282 46L290 54L244 100" stroke="#2563EB" stroke-width="5" stroke-linecap="round" stroke-linejoin="round" stroke-opacity="0.36"/>
  <path d="M317 29L332 14C336 10 342 9 347 12L356 17C350 26 351 37 359 44L350 53C345 58 337 58 332 53L317 38" fill="#DBEAFE" fill-opacity="0.24" stroke="#60A5FA" stroke-width="4" stroke-linejoin="round" stroke-opacity="0.34"/>
  <rect x="220" y="100" width="124" height="92" rx="18" fill="url(#monitorFill)" stroke="#93C5FD" stroke-width="3.2" stroke-opacity="0.62"/>
  <path d="M240 126H324" stroke="#3B82F6" stroke-width="3" stroke-linecap="round" stroke-opacity="0.28"/>
  <circle cx="244" cy="126" r="5" fill="#60A5FA" fill-opacity="0.48"/>
  <circle cx="262" cy="126" r="5" fill="#60A5FA" fill-opacity="0.34"/>
  <path d="M242 166L260 154L278 160L300 136L322 144" stroke="#2563EB" stroke-width="4.2" stroke-linecap="round" stroke-linejoin="round" stroke-opacity="0.38"/>
  <path d="M274 192V214M252 214H296" stroke="#60A5FA" stroke-width="4.2" stroke-linecap="round" stroke-opacity="0.34"/>
  <path d="M236 234C250 224 264 222 278 234C292 246 306 246 320 234C334 222 348 224 362 234" stroke="#60A5FA" stroke-width="4" stroke-linecap="round" stroke-opacity="0.24"/>
  <path d="M200 322C200 288 227 262 261 262C295 262 322 288 322 322H200Z" fill="url(#helmetFill)" stroke="#93C5FD" stroke-width="3.2" stroke-opacity="0.6"/>
  <path d="M212 322H310" stroke="#60A5FA" stroke-width="4.2" stroke-linecap="round" stroke-opacity="0.34"/>
  <path d="M260 276V322" stroke="#60A5FA" stroke-width="3.6" stroke-linecap="round" stroke-opacity="0.28"/>
  <path d="M232 294C240 286 250 282 261 282C272 282 282 286 290 294" stroke="#3B82F6" stroke-width="3.4" stroke-linecap="round" stroke-opacity="0.28"/>
  <path d="M184 354H332" stroke="#93C5FD" stroke-width="4" stroke-linecap="round" stroke-opacity="0.18"/>
</svg>
