<?xml version="1.0" encoding="UTF-8"?>
<svg id="Capa_1" xmlns="http://www.w3.org/2000/svg" version="1.1" viewBox="0 0 1033.45 370.74">
  <!-- Generator: Adobe Illustrator 30.0.0, SVG Export Plug-In . SVG Version: 2.1.1 Build 123)  -->
  <defs>
    <style>
      .st0 {
        fill: #fff;
      }
    </style>
  </defs>
  <g>
    <path class="st0" d="M364.09,152.71h-211.74c6.24-7.55,16.72-18.33,32.37-27.31,12.36-7.09,23.87-10.72,32.36-12.67-6.19-4.54-15.21-10.24-26.97-14.83-16.44-6.42-30.03-7.43-39.91-8.09-23.66-1.58-42.5,2.51-52.85,5.39-.96.27-14.7,4.15-27.51,10.52C30.77,125.15,7.31,164.32,0,177.45c.1-9,.95-21,4.04-34.79.92-4.11,3.85-16.45,9.98-30.47,19.32-44.22,58.08-76.85,58.08-76.85C139.6-17.92,224.99,3.63,230.31,5.08c.85.23,1.99.54,3.4.95,65.62,19.13,103.63,78.26,103.63,78.26,8.44,13.11,20.88,36.14,26.74,68.43h.01Z"/>
    <path class="st0" d="M275.6,344.21c-17.09,9.7-44.27,21.92-79.37,25.35-16.4,1.6-60.12,5.27-105.89-19.42-32.34-17.45-50.26-40.72-55.55-47.98-8.01-10.98-23.93-33.35-28.04-66.36-1.45-11.66-3.64-30.96,4.85-53.12,10.18-26.57,29.39-40.85,39.37-48.27,23.01-17.1,45.65-21.91,60.71-25.11,19.31-4.1,33.21-3.65,37.45-3.45,12.35.58,22.61,2.77,30.02,4.83-12.58,5.1-33.83,15.66-53.21,36.67-8.64,9.37-22.16,24.61-29.39,48.54-12.97,42.95,6.84,80.66,9.44,85.43,16.23,29.78,41.37,43.19,55.5,50.48,48.49,25.02,96.7,16.43,114.12,12.4h-.01Z"/>
    <path class="st0" d="M332.72,293.42c-2.39,3.15-5.74,7.24-10.11,11.65-1.99,2.01-9.11,9.14-17.53,14.56-12.23,7.87-24.03,10.1-33.85,11.87-11.44,2.05-30.59,3.99-54.6-.81,12.92-3.88,29.71-10.7,46.65-23.19,6.34-4.67,11.79-9.47,16.45-14.08h52.99Z"/>
    <path class="st0" d="M179.15,284.53c6.65-5.21,13.91-11.62,21.21-19.42,4.62-4.93,8.66-9.78,12.18-14.38h36.9c-4,5.09-8.48,10.4-13.48,15.82-6.22,6.73-12.35,12.66-18.18,17.84-12.88.04-25.75.09-38.63.13h0Z"/>
    <path class="st0" d="M273.51,198.05c-1.51,6.51-3.75,14.08-7.12,22.25-3.65,8.84-7.75,16.27-11.55,22.25h-37.48c3.95-6.66,7.97-14.08,11.87-22.25,3.72-7.81,6.83-15.27,9.44-22.25h34.85-.01Z"/>
    <path class="st0" d="M351.78,250.73c-1.42,4.8-3.28,10.09-5.73,15.71-3.06,7.01-6.4,13.04-9.58,18.09h-48.2c4.42-5.4,8.95-11.32,13.48-17.8,3.85-5.49,7.32-10.85,10.45-16h39.58,0Z"/>
    <path class="st0" d="M265.49,293.42c-8.76,7.19-21.97,16.35-39.73,23.25-12.84,4.99-24.53,7.42-33.8,8.63-2.72-.59-5.98-1.52-9.53-3.06-3.04-1.31-5.6-2.77-7.68-4.13,7.95-2.04,18.27-5.59,29.26-12.04,7.07-4.16,12.85-8.6,17.43-12.64h44.05Z"/>
    <path class="st0" d="M206.59,293.42c-4.21,3.12-9.27,6.41-15.21,9.49-9.47,4.9-18.29,7.76-25.44,9.49-2.64-1.15-5.52-2.58-8.54-4.36-3.95-2.32-7.3-4.75-10.07-7.01,7.07-2.54,14.14-5.07,21.21-7.61h38.05Z"/>
  </g>
  <path class="st0" d="M296.18,226.16l.96-28.1"/>
  <path class="st0" d="M774.2,145.8c-16.06,0-27.51-11.44-27.51-28.24s11.44-28.35,27.51-28.35,27.51,11.55,27.51,28.35-11.34,28.24-27.51,28.24ZM774.2,155.36c22.36,0,38.53-15.85,38.53-37.8s-16.17-37.8-38.53-37.8-38.43,15.85-38.43,37.8,16.17,37.8,38.43,37.8h0ZM676.66,121.65v-31.6h17.53c12.91,0,20.47,5.25,20.47,15.64s-7.56,15.96-20.58,15.96h-17.43.01ZM694.4,80.81h-28.14v73.5h10.39v-23.41h17.53c19.11,0,30.87-9.34,30.87-25.2s-11.55-24.88-30.66-24.88h0ZM616.92,155.36c19.42,0,31.5-11.97,31.5-31.5v-43.05h-10.29v42.73c0,14.38-8.19,22.47-21.21,22.47s-21.1-8.08-21.1-22.47v-42.73h-10.5v43.05c0,19.53,12.28,31.5,31.6,31.5ZM541.84,90.05c13.12,0,20.47,4.72,20.47,14.8s-7.35,14.38-20.58,14.38h-18.48v-29.19h18.59ZM573.55,154.31l-20.47-26.88c12.6-2.83,19.63-10.71,19.63-22.78,0-15.22-11.23-23.83-30.66-23.83h-29.19v73.5h10.39v-25.83h17.43l19.63,25.83h13.24,0ZM475.38,125.22h10.39l-.1,15.33c-5.46,3.15-10.5,5.25-19.63,5.25-16.27,0-27.72-10.39-27.72-28.14s12.28-28.45,28.35-28.45c7.77,0,15.22,2.1,22.78,6.72l4.31-8.08c-8.82-5.67-17.85-8.08-27.3-8.08-21.31,0-39.06,14.38-39.06,37.9,0,22.26,16.27,37.69,38.43,37.69,10.81,0,21.52-3.78,30.34-9.13l.1-30.34h-20.89v9.34h0Z"/>
  <path class="st0" d="M999.85,196.46c9.55,0,15.12,3.46,15.12,10.81s-5.57,10.5-15.12,10.5h-13.33v-21.31h13.33ZM1034.6,254.94l-18.69-24.88c10.92-3.68,17.11-11.65,17.11-23.1,0-16.06-12.28-25.51-32.65-25.51h-31.92v73.5h18.06v-22.68h9.87l17.22,22.68h21ZM920.26,256.2c21,0,34.02-12.49,34.02-32.55v-42.21h-17.95v42.21c0,11.23-5.99,17.32-16.06,17.32s-15.75-6.09-15.75-17.32v-42.21h-18.17v42.21c0,20.05,13.23,32.55,33.91,32.55h0ZM844.45,256.31c17.95,0,32.86-7.66,32.86-23.1,0-13.86-10.6-19.74-29.5-22.99-10.5-2-13.96-3.36-13.96-7.98,0-5.67,5.04-6.93,12.18-6.93s15.33,1.79,24.57,5.67l2.21-15.33c-8.29-3.78-17.43-5.46-26.77-5.46-16.69,0-31.39,7.66-31.39,22.78,0,13.54,9.97,18.58,28.56,21.73,9.97,2,15.01,3.15,15.01,9.24s-6.3,7.14-13.75,7.14c-8.61,0-21.42-2.52-29.29-6.61l-1.47,15.33c8.4,4.41,19.42,6.51,30.76,6.51h-.02ZM773.26,196.46c9.55,0,15.12,3.46,15.12,10.81s-5.57,10.5-15.12,10.5h-13.33v-21.31h13.33ZM808.02,254.94l-18.69-24.88c10.92-3.68,17.11-11.65,17.11-23.1,0-16.06-12.28-25.51-32.65-25.51h-31.92v73.5h18.06v-22.68h9.87l17.22,22.68h21ZM691.57,198.98l11.97,30.03h-24.04l12.07-30.03h0ZM732.94,254.94l-30.55-73.5h-21.63l-30.45,73.5h18.69l4.83-12.07h35.28l4.83,12.07h19ZM646.53,254.94v-15.33h-37.9v-58.17h-17.85v73.5h55.75ZM537.96,240.45c-12.39,0-21-8.92-21-22.26s8.61-22.26,21-22.26,20.89,8.92,20.89,22.26-8.61,22.26-20.89,22.26ZM537.85,256.2c23.1,0,39.79-15.96,39.79-38.01s-16.69-38.01-39.69-38.01-39.79,15.96-39.79,38.01,16.69,38.01,39.69,38.01h0ZM457.32,256.31c17.95,0,32.86-7.66,32.86-23.1,0-13.86-10.6-19.74-29.5-22.99-10.5-2-13.96-3.36-13.96-7.98,0-5.67,5.04-6.93,12.18-6.93s15.33,1.79,24.57,5.67l2.21-15.33c-8.29-3.78-17.43-5.46-26.77-5.46-16.69,0-31.39,7.66-31.39,22.78,0,13.54,9.97,18.58,28.56,21.73,9.97,2,15.01,3.15,15.01,9.24s-6.3,7.14-13.75,7.14c-8.61,0-21.42-2.52-29.29-6.61l-1.47,15.33c8.4,4.41,19.42,6.51,30.76,6.51h-.02Z"/>
  <path class="st0" d="M727.46,289.04v-4.27h-4.42v25.44h4.61v-12.67c0-2.75.71-4.87,2.14-6.36,1.42-1.49,3.38-2.23,5.88-2.23.45,0,.8.02,1.06.05v-4.46c-2.24,0-4.14.38-5.71,1.15s-2.75,1.89-3.55,3.36h-.01ZM702.55,306.94c-1.76,0-3.14-.37-4.13-1.1-.99-.74-1.49-1.74-1.49-3.02,0-2.62,1.95-3.94,5.86-3.94h7.1v3.55c-.58,1.44-1.5,2.55-2.78,3.34s-2.8,1.18-4.56,1.18h0ZM703.6,284.53c-2.05,0-3.98.28-5.81.84-1.82.56-3.39,1.37-4.7,2.42l1.92,3.46c.99-.83,2.21-1.5,3.65-1.99,1.44-.5,2.91-.74,4.42-.74,2.24,0,3.94.53,5.09,1.58,1.15,1.06,1.73,2.58,1.73,4.56v.91h-7.3c-3.55,0-6.14.68-7.78,2.04-1.63,1.36-2.45,3.16-2.45,5.4s.86,4.05,2.57,5.42c1.71,1.38,3.99,2.06,6.84,2.06,1.95,0,3.64-.31,5.06-.94,1.42-.62,2.52-1.53,3.29-2.71v3.36h4.37v-15.36c0-3.42-.94-6-2.81-7.73s-4.57-2.59-8.09-2.59h0ZM680.95,310.21h4.61v-35.62h-4.61v35.62ZM661.37,306.46c-1.63,0-3.1-.38-4.39-1.13-1.3-.75-2.32-1.81-3.07-3.17s-1.13-2.92-1.13-4.68.38-3.32,1.13-4.68,1.78-2.41,3.07-3.14c1.3-.74,2.76-1.1,4.39-1.1s3.1.37,4.39,1.1c1.3.74,2.31,1.78,3.05,3.14s1.1,2.92,1.1,4.68-.37,3.32-1.1,4.68c-.74,1.36-1.75,2.42-3.05,3.17s-2.76,1.13-4.39,1.13ZM661.37,310.49c2.53,0,4.79-.56,6.79-1.68s3.57-2.66,4.7-4.63c1.14-1.97,1.7-4.2,1.7-6.7s-.57-4.73-1.7-6.7-2.7-3.5-4.7-4.61c-2-1.1-4.26-1.66-6.79-1.66s-4.8.55-6.82,1.66c-2.02,1.1-3.59,2.64-4.73,4.61s-1.7,4.2-1.7,6.7.57,4.73,1.7,6.7c1.14,1.97,2.71,3.51,4.73,4.63,2.02,1.12,4.29,1.68,6.82,1.68ZM633.72,310.49c3.39,0,6.07-.68,8.04-2.04s2.95-3.19,2.95-5.5c0-1.73-.45-3.07-1.34-4.03s-1.98-1.64-3.24-2.04-2.92-.78-4.97-1.13c-1.54-.29-2.73-.54-3.58-.77-.85-.22-1.56-.58-2.14-1.06s-.86-1.13-.86-1.97c0-1.06.51-1.9,1.54-2.54,1.02-.64,2.51-.96,4.46-.96,2.82,0,5.26.67,7.34,2.02l1.97-3.65c-1.09-.7-2.48-1.26-4.18-1.68s-3.39-.62-5.09-.62c-3.23,0-5.81.7-7.73,2.09s-2.88,3.24-2.88,5.54c0,1.79.46,3.18,1.39,4.18.93.99,2.04,1.7,3.34,2.11s2.97.78,5.02,1.1c1.5.26,2.66.49,3.48.7s1.5.54,2.04.98c.54.45.82,1.06.82,1.82,0,2.3-2.02,3.46-6.05,3.46-1.63,0-3.25-.24-4.85-.72s-2.96-1.12-4.08-1.92l-1.92,3.65c1.09.86,2.59,1.58,4.51,2.14s3.92.84,6,.84h0ZM593.01,306.94c-1.76,0-3.14-.37-4.13-1.1-.99-.74-1.49-1.74-1.49-3.02,0-2.62,1.95-3.94,5.86-3.94h7.1v3.55c-.58,1.44-1.5,2.55-2.78,3.34s-2.8,1.18-4.56,1.18h0ZM594.07,284.53c-2.05,0-3.98.28-5.81.84-1.82.56-3.39,1.37-4.7,2.42l1.92,3.46c.99-.83,2.21-1.5,3.65-1.99,1.44-.5,2.91-.74,4.42-.74,2.24,0,3.94.53,5.09,1.58,1.15,1.06,1.73,2.58,1.73,4.56v.91h-7.3c-3.55,0-6.14.68-7.78,2.04-1.63,1.36-2.45,3.16-2.45,5.4s.86,4.05,2.57,5.42c1.71,1.38,3.99,2.06,6.84,2.06,1.95,0,3.64-.31,5.06-.94,1.42-.62,2.52-1.53,3.29-2.71v3.36h4.37v-15.36c0-3.42-.94-6-2.81-7.73s-4.57-2.59-8.09-2.59h0ZM570.12,281.07h4.32l8.06-6.24h-5.86l-6.53,6.24h.01ZM571.41,310.21h4.61v-25.44h-4.61v25.44ZM549.38,305.12c-1.7,0-3.21-.35-4.54-1.06-1.33-.7-2.37-1.69-3.12-2.95s-1.13-2.7-1.13-4.3c0-2.46.82-4.46,2.45-5.98,1.63-1.52,3.74-2.28,6.34-2.28s4.66.76,6.29,2.28,2.45,3.51,2.45,5.98c0,1.6-.38,3.03-1.13,4.3-.75,1.26-1.79,2.25-3.12,2.95s-2.83,1.06-4.49,1.06h0ZM558.26,284.77v3.94c-1.06-1.38-2.41-2.42-4.06-3.12s-3.43-1.06-5.35-1.06c-2.43,0-4.63.51-6.6,1.54s-3.51,2.47-4.63,4.34-1.68,4.01-1.68,6.41.56,4.54,1.68,6.41,2.66,3.33,4.63,4.37c1.97,1.04,4.17,1.56,6.6,1.56,1.86,0,3.58-.33,5.16-.98,1.58-.66,2.92-1.64,4.01-2.95v2.02c0,2.88-.71,5.02-2.14,6.43-1.42,1.41-3.62,2.11-6.6,2.11-1.86,0-3.66-.3-5.4-.89s-3.21-1.4-4.39-2.42l-2.21,3.55c1.34,1.22,3.1,2.15,5.28,2.81,2.18.66,4.46.98,6.86.98,4.38,0,7.68-1.06,9.89-3.19s3.31-5.42,3.31-9.86v-21.98h-4.37v-.02h.01ZM523.61,289.04v-4.27h-4.42v25.44h4.61v-12.67c0-2.75.71-4.87,2.14-6.36,1.42-1.49,3.38-2.23,5.88-2.23.45,0,.8.02,1.05.05v-4.46c-2.24,0-4.14.38-5.71,1.15s-2.75,1.89-3.55,3.36h0ZM500.23,288.41c2.21,0,4.06.68,5.54,2.04,1.49,1.36,2.36,3.11,2.62,5.26h-16.32c.26-2.18,1.13-3.94,2.62-5.28s3.34-2.02,5.54-2.02h0ZM512.81,297.63c0-2.56-.54-4.83-1.61-6.82-1.07-1.98-2.56-3.53-4.46-4.63s-4.07-1.66-6.5-1.66-4.62.55-6.55,1.66c-1.94,1.1-3.46,2.65-4.56,4.63s-1.66,4.21-1.66,6.67.57,4.74,1.7,6.72c1.14,1.98,2.74,3.53,4.82,4.63s4.46,1.66,7.15,1.66c2.11,0,4.02-.35,5.74-1.06,1.71-.7,3.14-1.73,4.3-3.07l-2.54-2.98c-1.86,2.05-4.3,3.07-7.34,3.07-2.5,0-4.58-.68-6.26-2.04s-2.66-3.16-2.95-5.4h20.64c.06-.58.1-1.04.1-1.39h-.02,0ZM470.57,284.53c-2.02,0-3.82.35-5.4,1.06-1.58.7-2.84,1.71-3.77,3.02v-3.84h-4.42v25.44h4.61v-13.1c0-2.72.72-4.81,2.16-6.26,1.44-1.46,3.41-2.18,5.9-2.18,2.21,0,3.9.62,5.09,1.87,1.18,1.25,1.78,3.1,1.78,5.57v14.11h4.61v-14.64c0-3.62-.95-6.36-2.86-8.23s-4.47-2.81-7.7-2.81h0ZM438.02,288.41c2.21,0,4.06.68,5.54,2.04,1.49,1.36,2.36,3.11,2.62,5.26h-16.32c.26-2.18,1.13-3.94,2.62-5.28s3.34-2.02,5.54-2.02h0ZM450.6,297.63c0-2.56-.54-4.83-1.61-6.82-1.07-1.98-2.56-3.53-4.46-4.63s-4.07-1.66-6.5-1.66-4.62.55-6.55,1.66c-1.94,1.1-3.46,2.65-4.56,4.63s-1.66,4.21-1.66,6.67.57,4.74,1.7,6.72c1.14,1.98,2.74,3.53,4.82,4.63s4.46,1.66,7.15,1.66c2.11,0,4.02-.35,5.74-1.06,1.71-.7,3.14-1.73,4.3-3.07l-2.54-2.98c-1.86,2.05-4.3,3.07-7.34,3.07-2.5,0-4.58-.68-6.26-2.04s-2.66-3.16-2.95-5.4h20.64c.06-.58.1-1.04.1-1.39h-.02Z"/>
  <path class="st0" d="M299.78,250.73c-2.94,4.96-6.33,10.22-10.25,15.64-4.98,6.89-9.98,12.93-14.74,18.16h-41.8c5.03-4.85,10.36-10.47,15.73-16.9,4.9-5.86,9.13-11.56,12.76-16.9h38.3Z"/>
  <path class="st0" d="M319.42,198.05c-.78,6.4-2.23,14.16-4.99,22.71-2.82,8.76-6.26,16.05-9.44,21.78h-36.94c3.45-6.23,7.03-13.66,10.25-22.25,3.03-8.09,5.13-15.61,6.61-22.25h34.52-.01,0Z"/>
  <path class="st0" d="M364.09,198.05c-.9,6.96-2.2,14.58-4.09,22.71-1.85,7.97-3.99,15.25-6.2,21.78-12.52,0-25.05.03-37.57.04,2.92-6.47,5.85-13.92,8.45-22.29,2.49-8.02,4.24-15.51,5.48-22.25h33.93Z"/>
  <path class="st0" d="M284.9,198.05"/>
  <path class="st0" d="M329.8,198.05"/>
  <path class="st0" d="M209.8,293.42"/>
</svg>