<svg width="1200" height="900" viewBox="0 0 1200 900" fill="none" xmlns="http://www.w3.org/2000/svg">
  <defs>
    <linearGradient id="sky" x1="210" y1="42" x2="1028" y2="768" gradientUnits="userSpaceOnUse">
      <stop stop-color="#BFE7FF"/>
      <stop offset="0.45" stop-color="#EEF8FF"/>
      <stop offset="1" stop-color="#D8ECFF"/>
    </linearGradient>
    <radialGradient id="sunGlow" cx="0" cy="0" r="1" gradientUnits="userSpaceOnUse" gradientTransform="translate(260 170) rotate(90) scale(175)">
      <stop stop-color="#FFE66B"/>
      <stop offset="0.42" stop-color="#FACC15" stop-opacity="0.72"/>
      <stop offset="1" stop-color="#FACC15" stop-opacity="0"/>
    </radialGradient>
    <linearGradient id="frontHill" x1="120" y1="560" x2="1080" y2="790" gradientUnits="userSpaceOnUse">
      <stop stop-color="#8FD36A"/>
      <stop offset="1" stop-color="#4B9F3E"/>
    </linearGradient>
    <linearGradient id="backHill" x1="120" y1="510" x2="1080" y2="710" gradientUnits="userSpaceOnUse">
      <stop stop-color="#C6EFAE"/>
      <stop offset="1" stop-color="#78BE58"/>
    </linearGradient>
    <linearGradient id="roof" x1="405" y1="284" x2="835" y2="446" gradientUnits="userSpaceOnUse">
      <stop stop-color="#2449A5"/>
      <stop offset="1" stop-color="#112B68"/>
    </linearGradient>
    <linearGradient id="wall" x1="448" y1="392" x2="820" y2="666" gradientUnits="userSpaceOnUse">
      <stop stop-color="#FFFDF7"/>
      <stop offset="1" stop-color="#F2F7FF"/>
    </linearGradient>
    <linearGradient id="panel" x1="595" y1="290" x2="802" y2="458" gradientUnits="userSpaceOnUse">
      <stop stop-color="#1D4ED8"/>
      <stop offset="1" stop-color="#071B44"/>
    </linearGradient>
    <linearGradient id="glass" x1="0" y1="0" x2="1" y2="1">
      <stop stop-color="#E2F4FF"/>
      <stop offset="1" stop-color="#8FCCFF"/>
    </linearGradient>
    <filter id="cardShadow" x="95" y="80" width="1010" height="720" filterUnits="userSpaceOnUse">
      <feOffset dy="26"/>
      <feGaussianBlur stdDeviation="28"/>
      <feColorMatrix type="matrix" values="0 0 0 0 0.078 0 0 0 0 0.176 0 0 0 0 0.427 0 0 0 0.16 0"/>
    </filter>
    <filter id="softShadow" x="250" y="190" width="700" height="560" filterUnits="userSpaceOnUse">
      <feOffset dy="18"/>
      <feGaussianBlur stdDeviation="22"/>
      <feColorMatrix type="matrix" values="0 0 0 0 0.078 0 0 0 0 0.176 0 0 0 0 0.427 0 0 0 0.18 0"/>
    </filter>
  </defs>

  <g filter="url(#cardShadow)">
    <rect x="140" y="105" width="920" height="650" rx="46" fill="url(#sky)"/>
  </g>

  <circle cx="260" cy="170" r="178" fill="url(#sunGlow)"/>
  <circle cx="260" cy="170" r="58" fill="#FACC15"/>
  <g stroke="#FACC15" stroke-width="8" stroke-linecap="round" opacity="0.88">
    <path d="M260 68V34"/>
    <path d="M260 306V270"/>
    <path d="M158 170H124"/>
    <path d="M396 170H360"/>
    <path d="M188 98L164 74"/>
    <path d="M332 242L356 266"/>
    <path d="M332 98L356 74"/>
    <path d="M188 242L164 266"/>
  </g>

  <path d="M156 520C253 454 354 469 451 516C552 565 647 566 754 510C865 452 962 470 1058 536V755H156V520Z" fill="url(#backHill)"/>
  <path d="M140 604C261 531 378 553 486 614C591 673 704 676 823 607C927 546 1013 565 1060 615V755H140V604Z" fill="url(#frontHill)"/>
  <path d="M140 679C273 638 393 648 506 691C615 733 722 735 830 690C929 649 1010 656 1060 684V755H140V679Z" fill="#3F8738" opacity="0.45"/>

  <g opacity="0.7" stroke="#E8F7FF" stroke-width="7" stroke-linecap="round">
    <path d="M225 686C292 650 364 654 426 688"/>
    <path d="M730 688C798 649 873 652 936 686"/>
  </g>

  <g filter="url(#softShadow)">
    <path d="M408 410L628 265L854 410V646H408V410Z" fill="url(#wall)"/>
    <path d="M362 427L628 242L898 427C908 434 908 449 898 456L862 480C854 486 843 486 835 481L628 343L421 481C413 486 402 486 394 480L362 456C352 449 352 434 362 427Z" fill="url(#roof)"/>

    <path d="M606 455H758V646H606V455Z" fill="#F7FBFF"/>
    <rect x="632" y="478" width="94" height="168" rx="14" fill="#1F3D82"/>
    <circle cx="708" cy="562" r="6" fill="#FACC15"/>

    <rect x="456" y="456" width="118" height="88" rx="14" fill="url(#glass)"/>
    <rect x="785" y="456" width="72" height="88" rx="14" fill="url(#glass)"/>
    <rect x="456" y="565" width="82" height="81" rx="12" fill="url(#glass)"/>
    <rect x="552" y="565" width="82" height="81" rx="12" fill="url(#glass)"/>
    <rect x="752" y="565" width="84" height="81" rx="12" fill="url(#glass)"/>

    <path d="M606 293L817 407L784 461L573 347L606 293Z" fill="url(#panel)"/>
    <path d="M591 316L803 430" stroke="#8CC8FF" stroke-width="3.5" opacity="0.6"/>
    <path d="M576 340L788 453" stroke="#8CC8FF" stroke-width="3.5" opacity="0.6"/>
    <path d="M637 310L603 364" stroke="#8CC8FF" stroke-width="3.5" opacity="0.6"/>
    <path d="M688 337L654 391" stroke="#8CC8FF" stroke-width="3.5" opacity="0.6"/>
    <path d="M739 365L705 418" stroke="#8CC8FF" stroke-width="3.5" opacity="0.6"/>
    <path d="M790 392L756 446" stroke="#8CC8FF" stroke-width="3.5" opacity="0.6"/>

    <path d="M360 646H872L928 715H304L360 646Z" fill="#DBECFA"/>
    <path d="M872 646H946L1002 715H928L872 646Z" fill="#C9DFEF"/>
    <path d="M304 715H1002V735C1002 747 992 757 980 757H326C314 757 304 747 304 735V715Z" fill="#F8FAFE"/>
  </g>

  <g>
    <ellipse cx="948" cy="675" rx="103" ry="26" fill="#3F8738" opacity="0.25"/>
    <rect x="939" y="565" width="20" height="102" rx="10" fill="#8A5B35"/>
    <circle cx="910" cy="568" r="50" fill="#73BF52"/>
    <circle cx="968" cy="558" r="57" fill="#67B24A"/>
    <circle cx="949" cy="518" r="55" fill="#88D063"/>
    <circle cx="1000" cy="591" r="38" fill="#7BC55A"/>
  </g>

  <g>
    <ellipse cx="275" cy="690" rx="90" ry="24" fill="#3F8738" opacity="0.25"/>
    <rect x="266" y="584" width="18" height="98" rx="9" fill="#90613D"/>
    <circle cx="235" cy="592" r="45" fill="#88CC62"/>
    <circle cx="298" cy="579" r="50" fill="#6BB44E"/>
    <circle cx="277" cy="544" r="51" fill="#7EC75D"/>
    <circle cx="324" cy="611" r="34" fill="#95D86D"/>
  </g>

  <g fill="#1E3A8A" opacity="0.42">
    <path d="M812 240C824 228 837 228 849 240C836 234 825 234 812 240Z"/>
    <path d="M870 190C882 178 895 178 907 190C894 184 883 184 870 190Z"/>
    <path d="M764 178C774 168 785 168 795 178C784 173 775 173 764 178Z"/>
  </g>
</svg>
