<svg width="1600" height="900" viewBox="0 0 1600 900" fill="none" xmlns="http://www.w3.org/2000/svg">
  <defs>
    <linearGradient id="sky" x1="0" y1="0" x2="1600" y2="900" gradientUnits="userSpaceOnUse">
      <stop stop-color="#EEF7FF"/>
      <stop offset="0.48" stop-color="#FFFFFF"/>
      <stop offset="1" stop-color="#DDEBFF"/>
    </linearGradient>
    <radialGradient id="airGlow" cx="0" cy="0" r="1" gradientUnits="userSpaceOnUse" gradientTransform="translate(1040 430) rotate(90) scale(330 520)">
      <stop stop-color="#BAE6FD" stop-opacity="0.86"/>
      <stop offset="0.48" stop-color="#60A5FA" stop-opacity="0.26"/>
      <stop offset="1" stop-color="#60A5FA" stop-opacity="0"/>
    </radialGradient>
    <linearGradient id="unit" x1="360" y1="322" x2="890" y2="748" gradientUnits="userSpaceOnUse">
      <stop stop-color="#FFFFFF"/>
      <stop offset="0.54" stop-color="#E8F1FF"/>
      <stop offset="1" stop-color="#A8BAD8"/>
    </linearGradient>
    <linearGradient id="unitSide" x1="704" y1="322" x2="926" y2="746" gradientUnits="userSpaceOnUse">
      <stop stop-color="#D9E7FF"/>
      <stop offset="1" stop-color="#7187AE"/>
    </linearGradient>
    <linearGradient id="fan" x1="458" y1="412" x2="694" y2="650" gradientUnits="userSpaceOnUse">
      <stop stop-color="#EAF7FF"/>
      <stop offset="1" stop-color="#6EA8FF"/>
    </linearGradient>
    <linearGradient id="coolFlow" x1="760" y1="360" x2="1480" y2="520" gradientUnits="userSpaceOnUse">
      <stop stop-color="#BAE6FD" stop-opacity="0.92"/>
      <stop offset="0.5" stop-color="#60A5FA" stop-opacity="0.84"/>
      <stop offset="1" stop-color="#2563EB" stop-opacity="0.74"/>
    </linearGradient>
    <linearGradient id="windIcon" x1="620" y1="220" x2="1480" y2="720" gradientUnits="userSpaceOnUse">
      <stop stop-color="#12C7E8"/>
      <stop offset="1" stop-color="#0BAED8"/>
    </linearGradient>
    <linearGradient id="warmFlow" x1="760" y1="560" x2="1480" y2="700" gradientUnits="userSpaceOnUse">
      <stop stop-color="#FDE68A" stop-opacity="0.9"/>
      <stop offset="0.48" stop-color="#FB923C" stop-opacity="0.82"/>
      <stop offset="1" stop-color="#EF4444" stop-opacity="0.72"/>
    </linearGradient>
    <linearGradient id="house" x1="1050" y1="388" x2="1420" y2="760" gradientUnits="userSpaceOnUse">
      <stop stop-color="#FFFFFF"/>
      <stop offset="1" stop-color="#DDEBFF"/>
    </linearGradient>
    <filter id="shadow" x="260" y="270" width="1220" height="620" filterUnits="userSpaceOnUse">
      <feOffset dy="30"/>
      <feGaussianBlur stdDeviation="34"/>
      <feColorMatrix type="matrix" values="0 0 0 0 0.03 0 0 0 0 0.08 0 0 0 0 0.22 0 0 0 0.22 0"/>
    </filter>
    <filter id="flowBlur" x="560" y="130" width="1010" height="760" filterUnits="userSpaceOnUse">
      <feGaussianBlur stdDeviation="12"/>
    </filter>
  </defs>

  <rect width="1600" height="900" fill="url(#sky)"/>
  <circle cx="1040" cy="430" r="430" fill="url(#airGlow)"/>

  <path d="M0 760C260 692 520 706 800 760C1080 814 1328 800 1600 724V900H0V760Z" fill="#F1F6FF"/>
  <path d="M0 826C310 774 590 800 860 842C1120 882 1368 862 1600 802V900H0V826Z" fill="#E4EEFF"/>

  <g filter="url(#flowBlur)" opacity="0.26" stroke="#47D9F0" stroke-linecap="round" stroke-linejoin="round">
    <path d="M600 332H974C1068 332 1124 274 1124 206C1124 140 1072 94 1000 94C922 94 882 154 882 226" stroke-width="46"/>
    <path d="M600 462H1302C1398 462 1454 404 1454 336C1454 270 1402 224 1330 224C1252 224 1212 284 1212 356" stroke-width="46"/>
    <path d="M600 592H974C1068 592 1124 650 1124 718C1124 784 1072 830 1000 830C922 830 882 770 882 698" stroke-width="46"/>
  </g>

  <g opacity="0.86" stroke="url(#windIcon)" stroke-linecap="round" stroke-linejoin="round">
    <path d="M600 332H974C1068 332 1124 274 1124 206C1124 140 1072 94 1000 94C922 94 882 154 882 226" stroke-width="28"/>
    <path d="M600 462H1302C1398 462 1454 404 1454 336C1454 270 1402 224 1330 224C1252 224 1212 284 1212 356" stroke-width="28"/>
    <path d="M600 592H974C1068 592 1124 650 1124 718C1124 784 1072 830 1000 830C922 830 882 770 882 698" stroke-width="28"/>
  </g>

  <g filter="url(#shadow)">
    <path d="M1028 548L1242 398L1460 548V764H1028V548Z" fill="url(#house)" opacity="0.92"/>
    <path d="M984 558L1242 372L1504 558C1516 566 1514 584 1502 591L1468 612C1458 618 1446 618 1436 611L1242 476L1048 611C1038 618 1026 618 1016 612L982 591C970 584 970 566 984 558Z" fill="#1E3A8A" opacity="0.88"/>
    <rect x="1188" y="588" width="108" height="176" rx="16" fill="#FFFFFF" opacity="0.76"/>

    <rect x="338" y="326" width="450" height="374" rx="44" fill="url(#unit)"/>
    <path d="M738 358C738 340 752 326 770 326H842C866 326 886 346 886 370V656C886 680 866 700 842 700H760C748 700 738 690 738 678V358Z" fill="url(#unitSide)"/>
    <rect x="382" y="382" width="284" height="244" rx="34" fill="#D7E7FF"/>
    <circle cx="524" cy="504" r="108" fill="#0F2D6F" opacity="0.86"/>
    <circle cx="524" cy="504" r="82" fill="url(#fan)"/>
    <circle cx="524" cy="504" r="24" fill="#1E3A8A"/>
    <path d="M524 420C560 448 566 480 536 504C506 528 472 514 450 478C486 472 510 452 524 420Z" fill="#1D4ED8" opacity="0.76"/>
    <path d="M604 506C572 538 538 542 512 516C486 490 498 456 532 430C542 466 566 490 604 506Z" fill="#60A5FA" opacity="0.72"/>
    <path d="M480 586C466 544 478 514 514 506C550 498 574 524 586 566C550 550 518 554 480 586Z" fill="#2563EB" opacity="0.72"/>
    <rect x="680" y="394" width="58" height="212" rx="18" fill="#F8FBFF" opacity="0.78"/>
    <path d="M696 430H722M696 482H722M696 534H722" stroke="#94A3B8" stroke-width="8" stroke-linecap="round"/>
  </g>

</svg>
