<svg width="1600" height="900" viewBox="0 0 1600 900" fill="none" xmlns="http://www.w3.org/2000/svg">
  <defs>
    <linearGradient id="sky" x1="0" y1="0" x2="1600" y2="900" gradientUnits="userSpaceOnUse">
      <stop stop-color="#F8FBFF"/>
      <stop offset="0.48" stop-color="#FFFFFF"/>
      <stop offset="1" stop-color="#EEF5FF"/>
    </linearGradient>
    <radialGradient id="sunGlow" cx="0" cy="0" r="1" gradientUnits="userSpaceOnUse" gradientTransform="translate(1250 170) rotate(90) scale(270)">
      <stop stop-color="#FFF9C8"/>
      <stop offset="0.38" stop-color="#FACC15" stop-opacity="0.72"/>
      <stop offset="1" stop-color="#FACC15" stop-opacity="0"/>
    </radialGradient>
    <linearGradient id="warmStrokeStrong" x1="250" y1="340" x2="1680" y2="690" gradientUnits="userSpaceOnUse">
      <stop stop-color="#FACC15" stop-opacity="0.92"/>
      <stop offset="0.38" stop-color="#FB923C" stop-opacity="0.92"/>
      <stop offset="1" stop-color="#EF4444" stop-opacity="0.86"/>
    </linearGradient>
    <linearGradient id="warmStrokeCenter" x1="206" y1="510" x2="1700" y2="510" gradientUnits="userSpaceOnUse">
      <stop stop-color="#FB923C" stop-opacity="0.9"/>
      <stop offset="0.42" stop-color="#EF4444" stop-opacity="0.94"/>
      <stop offset="1" stop-color="#B91C1C" stop-opacity="0.9"/>
    </linearGradient>
    <linearGradient id="warmStrokeCenterSoft" x1="206" y1="510" x2="1700" y2="510" gradientUnits="userSpaceOnUse">
      <stop stop-color="#FB923C" stop-opacity="0.38"/>
      <stop offset="0.42" stop-color="#EF4444" stop-opacity="0.52"/>
      <stop offset="1" stop-color="#B91C1C" stop-opacity="0.42"/>
    </linearGradient>
    <linearGradient id="warmStrokeSoft" x1="250" y1="280" x2="1680" y2="750" gradientUnits="userSpaceOnUse">
      <stop stop-color="#FDE68A" stop-opacity="0.42"/>
      <stop offset="0.45" stop-color="#FB923C" stop-opacity="0.5"/>
      <stop offset="1" stop-color="#EF4444" stop-opacity="0.42"/>
    </linearGradient>
    <filter id="warmBlur" x="160" y="230" width="1560" height="560" filterUnits="userSpaceOnUse">
      <feGaussianBlur stdDeviation="14"/>
    </filter>
  </defs>

  <rect width="1600" height="900" fill="url(#sky)"/>

  <circle cx="1250" cy="170" r="270" fill="url(#sunGlow)"/>
  <circle cx="1250" cy="170" r="76" fill="#FACC15"/>
  <circle cx="1250" cy="170" r="54" fill="#FFE66D"/>
  <g stroke="#FACC15" stroke-width="10" stroke-linecap="round" opacity="0.82">
    <path d="M1250 42V8"/>
    <path d="M1250 330V292"/>
    <path d="M1123 170H1085"/>
    <path d="M1415 170H1373"/>
    <path d="M1161 82L1133 54"/>
    <path d="M1339 258L1369 288"/>
    <path d="M1339 82L1369 54"/>
    <path d="M1161 258L1133 288"/>
  </g>

  <path d="M0 780C260 710 520 720 800 775C1080 830 1330 805 1600 730V900H0V780Z" fill="#F4F8FF"/>
  <path d="M0 835C310 780 590 805 860 845C1120 884 1370 860 1600 808V900H0V835Z" fill="#EAF2FF"/>

  <g filter="url(#warmBlur)" opacity="0.85">
    <path d="M216 374C360 266 516 276 656 388C804 506 946 520 1108 398C1248 292 1360 304 1466 394" stroke="url(#warmStrokeSoft)" stroke-width="42" stroke-linecap="round"/>
    <path d="M206 510C366 392 520 402 662 520C812 646 956 656 1124 526C1260 420 1370 428 1478 520" stroke="url(#warmStrokeCenterSoft)" stroke-width="54" stroke-linecap="round"/>
    <path d="M230 650C384 560 534 574 690 664C846 754 1006 750 1164 642C1300 548 1402 560 1490 642" stroke="url(#warmStrokeSoft)" stroke-width="46" stroke-linecap="round"/>
  </g>

  <g opacity="0.98">
    <path d="M216 374C360 266 516 276 656 388C804 506 946 520 1108 398C1248 292 1360 304 1466 394" stroke="url(#warmStrokeStrong)" stroke-width="13" stroke-linecap="round"/>
    <path d="M206 510C366 392 520 402 662 520C812 646 956 656 1124 526C1260 420 1370 428 1478 520" stroke="url(#warmStrokeCenter)" stroke-width="17" stroke-linecap="round"/>
    <path d="M230 650C384 560 534 574 690 664C846 754 1006 750 1164 642C1300 548 1402 560 1490 642" stroke="url(#warmStrokeStrong)" stroke-width="14" stroke-linecap="round"/>
  </g>
</svg>
